<svg xmlns="http://www.w3.org/2000/svg" width="472.073" height="520.041" viewBox="0 0 472.073 520.041">
  <g id="phone" transform="translate(-1.98 4.035)">
    <path id="Path_171677" data-name="Path 171677" d="M161.669,111.164a23.748,23.748,0,0,0-33.118-4.222l-39.227,30.03A16.579,16.579,0,0,0,86.4,160.005l10.323,13.149-8.288,6.435A8.205,8.205,0,0,0,93.1,193.866a7.986,7.986,0,0,0,5.148-1.636l8.358-6.489,10.937,13.93a16.539,16.539,0,0,0,23.1,2.59l36.578-29.686a24.109,24.109,0,0,0,5.218-33.182Zm5.656,48.849-36.989,29.893c-.129-.012-31.348-39.783-31.348-39.783l.059-.445,39.23-30.033a7.543,7.543,0,0,1,10.5,1l20.779,28.233a8.115,8.115,0,0,1-2.234,11.136Z" transform="translate(231.062 306.179)" stroke="#000" stroke-width="8"/>
    <path id="Path_171678" data-name="Path 171678" d="M458.111,138.323c-23.263-30.3-55.479-36.158-86.464-15.46L171.088,270.035A94.712,94.712,0,0,1,40.6,251.864a88.635,88.635,0,0,1-17.7-66.961,89.82,89.82,0,0,1,36.258-60.1L126.771,75.2l-9.99-12.514L49.7,111.907A105.7,105.7,0,0,0,7.069,182.645a104.54,104.54,0,0,0,20.865,78.988,110.79,110.79,0,0,0,152.618,21.3L380.822,135.964c31.825-21.241,54.127-1.531,64.6,12.1a40.76,40.76,0,0,1,8.14,30.78,41.483,41.483,0,0,1-16.869,27.784l-25.9,20.112,9.484,12.888L446.327,219.4A57.2,57.2,0,0,0,469.4,181.1a56.619,56.619,0,0,0-11.288-42.779Z" transform="translate(0 188.055)" stroke="#000" stroke-width="8"/>
    <path id="Path_171679" data-name="Path 171679" d="M40.215,234.335l22.509,28.184a30.731,30.731,0,0,0,42.851,6.207l9.484-7.288L131.518,283a31.981,31.981,0,0,0,44.445,6.511l103.3-74.83a32.547,32.547,0,0,0,9.859-38.913l53.393-40.326A27.333,27.333,0,1,0,309.77,91.692L257.3,131.32,224.591,87l52.256-39.22a27.262,27.262,0,0,0,5.914-37.5,27.164,27.164,0,0,0-37.661-4.8L192.793,44.745a31.481,31.481,0,0,0-41.027-2.359L48.628,121.095a32.581,32.581,0,0,0-6.261,45.12L55.554,183.49l-9.465,7.264a31.509,31.509,0,0,0-5.875,43.581Zm279.2-129.874a11.351,11.351,0,1,1,13.464,18.212l-52.622,39.742L266.8,144.193Zm-64.7-86.181a11.109,11.109,0,0,1,15.26,1.6,11.058,11.058,0,0,1-2.722,15.1L215.091,74.133,202.684,57.324ZM58.33,133.813,161.468,55.1a15.746,15.746,0,0,1,22.072,3.224l89.187,120.833a16.451,16.451,0,0,1-3.008,22.68l-103.3,74.828a15.87,15.87,0,0,1-22.072-3.226l-.078-.105L55.162,156.612a16.487,16.487,0,0,1,3.168-22.8Zm-2.5,69.633,9.432-7.239,40.089,52.514-9.521,7.316a14.437,14.437,0,0,1-20.4-3.24L52.916,224.611a15.356,15.356,0,0,1,2.914-21.165Z" transform="translate(84.02 0)" stroke="#000" stroke-width="8"/>
  </g>
</svg>
