<svg xmlns="http://www.w3.org/2000/svg" width="421.91" height="515" viewBox="0 0 421.91 515">
  <g id="ipad" transform="translate(1.332 1.5)">
    <path id="Path_171674" data-name="Path 171674" d="M360.893,0H58.349A58.248,58.248,0,0,0,.168,58.181V453.819A58.248,58.248,0,0,0,58.349,512H360.893a58.252,58.252,0,0,0,58.185-58.181V58.181A58.252,58.252,0,0,0,360.893,0ZM395.8,453.819a34.946,34.946,0,0,1-34.909,34.909H58.349a34.949,34.949,0,0,1-34.909-34.909V58.181A34.949,34.949,0,0,1,58.349,23.271H360.893A34.946,34.946,0,0,1,395.8,58.181Zm0,0" stroke="#000" stroke-width="3"/>
    <path id="Path_171675" data-name="Path 171675" d="M230.956,42.668H161.138a11.636,11.636,0,1,0,0,23.271h69.818a11.636,11.636,0,0,0,0-23.271Zm0,0" transform="translate(13.576 3.879)" stroke="#000" stroke-width="3"/>
    <path id="Path_171676" data-name="Path 171676" d="M217.379,407.271A23.273,23.273,0,1,1,194.108,384,23.272,23.272,0,0,1,217.379,407.271Zm0,0" transform="translate(15.515 34.91)" stroke="#000" stroke-width="3"/>
  </g>
</svg>
