<svg xmlns="http://www.w3.org/2000/svg" width="418.642" height="506.002" viewBox="0 0 418.642 506.002">
  <path id="Subtraction_15" data-name="Subtraction 15" d="M261.176,512H53.824A47.878,47.878,0,0,1,6,464.177V53.824A47.878,47.878,0,0,1,53.824,6H261.176A47.878,47.878,0,0,1,309,53.824v44.24l3.428-.494a98.121,98.121,0,0,1,50.83,6.169,13,13,0,0,1,4.322,21.244l-48.1,48.1,6.051,22.582,22.582,6.05,48.1-48.1a12.944,12.944,0,0,1,9.167-3.812,13.13,13.13,0,0,1,2.616.265,12.967,12.967,0,0,1,9.462,7.869,98.049,98.049,0,0,1-21.607,106.25,98.646,98.646,0,0,1-83.426,27.73L309,291.43V464.177A47.878,47.878,0,0,1,261.176,512ZM53.824,32A21.848,21.848,0,0,0,32,53.824V464.176A21.849,21.849,0,0,0,53.824,486H261.176A21.843,21.843,0,0,0,283,464.176v-157.1l-44.074,44.075a48.708,48.708,0,1,1-68.883-68.885l61.65-61.651-.419-1.652a98.231,98.231,0,0,1,50.106-111.441l1.621-.84V53.824A21.848,21.848,0,0,0,261.176,32H246.05L233.786,69.748a12.968,12.968,0,0,1-12.364,8.983H93.578a12.968,12.968,0,0,1-12.363-8.983L68.949,32Zm279.451,90.517-7.306.045a72.231,72.231,0,0,0-67.283,97.16,13.043,13.043,0,0,1-3.01,13.677l-67.252,67.252a22.71,22.71,0,0,0,32.117,32.117l67.252-67.253a13,13,0,0,1,13.677-3.01,71.754,71.754,0,0,0,24.833,4.413A72.824,72.824,0,0,0,377.465,245.8a71.75,71.75,0,0,0,21.165-50.579l.045-7.306L361.192,225.4a13,13,0,0,1-12.558,3.365l-37.081-9.936a13.038,13.038,0,0,1-9.192-9.192l-9.937-37.081A13.038,13.038,0,0,1,295.79,160ZM96.287,32l6.736,20.73H211.976L218.712,32ZM157.5,452.377a22,22,0,1,1,22-22A22.025,22.025,0,0,1,157.5,452.377Z" transform="translate(-5.999 -6)"/>
</svg>
